<svg id="visual" viewBox="0 0 960 540" width="960" height="540" xmlns="http://www.w3.org/2000/svg" xmlns:xlink="http://www.w3.org/1999/xlink" version="1.1"><rect x="0" y="0" width="960" height="540" fill="#0f172a"></rect><path d="M0 211L22.8 205.8C45.7 200.7 91.3 190.3 137 179.7C182.7 169 228.3 158 274 160.7C319.7 163.3 365.3 179.7 411.2 188.7C457 197.7 503 199.3 548.8 201.2C594.7 203 640.3 205 686 205.7C731.7 206.3 777.3 205.7 823 202.7C868.7 199.7 914.3 194.3 937.2 191.7L960 189L960 0L937.2 0C914.3 0 868.7 0 823 0C777.3 0 731.7 0 686 0C640.3 0 594.7 0 548.8 0C503 0 457 0 411.2 0C365.3 0 319.7 0 274 0C228.3 0 182.7 0 137 0C91.3 0 45.7 0 22.8 0L0 0Z" fill="#f97316"></path><path d="M0 176L22.8 173.2C45.7 170.3 91.3 164.7 137 162C182.7 159.3 228.3 159.7 274 161.5C319.7 163.3 365.3 166.7 411.2 163.8C457 161 503 152 548.8 141.3C594.7 130.7 640.3 118.3 686 120.7C731.7 123 777.3 140 823 152.7C868.7 165.3 914.3 173.7 937.2 177.8L960 182L960 0L937.2 0C914.3 0 868.7 0 823 0C777.3 0 731.7 0 686 0C640.3 0 594.7 0 548.8 0C503 0 457 0 411.2 0C365.3 0 319.7 0 274 0C228.3 0 182.7 0 137 0C91.3 0 45.7 0 22.8 0L0 0Z" fill="#fb5a36"></path><path d="M0 98L22.8 101.5C45.7 105 91.3 112 137 115.5C182.7 119 228.3 119 274 118.2C319.7 117.3 365.3 115.7 411.2 113.3C457 111 503 108 548.8 107.3C594.7 106.7 640.3 108.3 686 108C731.7 107.7 777.3 105.3 823 103.2C868.7 101 914.3 99 937.2 98L960 97L960 0L937.2 0C914.3 0 868.7 0 823 0C777.3 0 731.7 0 686 0C640.3 0 594.7 0 548.8 0C503 0 457 0 411.2 0C365.3 0 319.7 0 274 0C228.3 0 182.7 0 137 0C91.3 0 45.7 0 22.8 0L0 0Z" fill="#f7434e"></path><path d="M0 95L22.8 92.7C45.7 90.3 91.3 85.7 137 79C182.7 72.3 228.3 63.7 274 66.2C319.7 68.7 365.3 82.3 411.2 89.7C457 97 503 98 548.8 94C594.7 90 640.3 81 686 77.2C731.7 73.3 777.3 74.7 823 73.5C868.7 72.3 914.3 68.7 937.2 66.8L960 65L960 0L937.2 0C914.3 0 868.7 0 823 0C777.3 0 731.7 0 686 0C640.3 0 594.7 0 548.8 0C503 0 457 0 411.2 0C365.3 0 319.7 0 274 0C228.3 0 182.7 0 137 0C91.3 0 45.7 0 22.8 0L0 0Z" fill="#ec3063"></path><path d="M0 31L22.8 36.7C45.7 42.3 91.3 53.7 137 53.8C182.7 54 228.3 43 274 39.5C319.7 36 365.3 40 411.2 42.3C457 44.7 503 45.3 548.8 44.5C594.7 43.7 640.3 41.3 686 44.2C731.7 47 777.3 55 823 56.8C868.7 58.7 914.3 54.3 937.2 52.2L960 50L960 0L937.2 0C914.3 0 868.7 0 823 0C777.3 0 731.7 0 686 0C640.3 0 594.7 0 548.8 0C503 0 457 0 411.2 0C365.3 0 319.7 0 274 0C228.3 0 182.7 0 137 0C91.3 0 45.7 0 22.8 0L0 0Z" fill="#db2777"></path></svg>